<?xml version="1.0" encoding="utf-8"?>
<!-- Generator: Adobe Illustrator 18.1.1, SVG Export Plug-In . SVG Version: 6.00 Build 0)  -->
<!DOCTYPE svg PUBLIC "-//W3C//DTD SVG 1.1//EN" "http://www.w3.org/Graphics/SVG/1.1/DTD/svg11.dtd">
<svg version="1.1" id="Layer_1" xmlns="http://www.w3.org/2000/svg" xmlns:xlink="http://www.w3.org/1999/xlink" x="0px" y="0px"
	 viewBox="0 0 64 64" enable-background="new 0 0 64 64" xml:space="preserve">
<path fill="#010202" d="M29.6,2.3v24.9H4.8c-1.2,0-2.3,0.9-2.3,2.3c0,1.2,0.9,2.3,2.3,2.3h24.9v24.9c0,1.2,0.9,2.3,2.3,2.3
	c1.2,0,2.3-0.9,2.3-2.3V31.6h24.9c1.2,0,2.3-0.9,2.3-2.3c0-1.4-0.9-2.3-2.3-2.3H34.1V2.3c0-1.2-0.9-2.3-2.3-2.3
	C30.6,0,29.6,1.1,29.6,2.3z"/>
</svg>
