<svg xmlns="http://www.w3.org/2000/svg" viewBox="0 0 32 32">
  <path d="M0 16q0-1.11.78-1.89t1.892-.782 1.883.78T5.328 16t-.773 1.89-1.883.782-1.89-.78T0 16zm3.86 9.406q0-1.094.772-1.883t1.883-.79q1.078 0 1.875.798t.797 1.877q0 1.11-.79 1.89t-1.882.782q-1.11 0-1.883-.78t-.773-1.893zm.03-18.843q0-1.125.798-1.89.78-.782 1.875-.782 1.11 0 1.906.783t.795 1.89-.79 1.884-1.913.773q-1.094 0-1.883-.774t-.79-1.883zm9.376 22.765q0-1.11.78-1.89.767-.767 1.876-.767t1.89.775.782 1.883-.78 1.89T15.92 32t-1.883-.782-.774-1.89zm.062-26.656q0-1.11.78-1.89T16 0t1.89.78.782 1.892-.78 1.883T16 5.328t-1.89-.773-.782-1.883zm9.406 22.734q0-1.078.797-1.875t1.908-.795q1.078 0 1.875.797t.797 1.876q0 1.11-.79 1.89t-1.883.782q-1.11 0-1.906-.78t-.795-1.892zm0-18.843q0-1.125.797-1.89.815-.782 1.908-.782t1.883.783.79 1.89-.79 1.884-1.882.773q-1.125 0-1.914-.774t-.79-1.883zM26.672 16q0-1.11.78-1.89t1.876-.782q1.11 0 1.89.78T32 16t-.78 1.89-1.892.782-1.883-.78T26.672 16z"/>
</svg>
