<?xml version="1.0" encoding="utf-8"?><!DOCTYPE svg PUBLIC "-//W3C//DTD SVG 1.1//EN" "http://www.w3.org/Graphics/SVG/1.1/DTD/svg11.dtd"><svg xmlns="http://www.w3.org/2000/svg" xmlns:xlink="http://www.w3.org/1999/xlink"><symbol viewBox="9 12.3 37.7 34" id="caution"><path d="M27.8 15.3c1 0 1.7.5 2.2 1.3l13.2 22c.6 1 .6 2.2 0 3.2-.5 1-1.5 1.6-2.7 1.6H15.1c-1.2 0-2.2-.6-2.7-1.6-.6-1-.5-2.2 0-3.2l13.2-22c.5-.8 1.3-1.3 2.2-1.3m.1-3h-.1c-1.9 0-3.6 1-4.7 2.7L9.9 37c-1.1 1.9-1.2 4.3-.1 6.2 1.1 1.9 3.1 3.1 5.3 3.1h25.5c2.3 0 4.2-1.2 5.3-3.1 1.1-1.9 1.1-4.3-.1-6.1l-13.2-22c-1.1-1.8-2.8-2.7-4.7-2.8z"/><path d="M27.8 33.2c-.8 0-1.5-.7-1.5-1.5v-9c0-.8.7-1.5 1.5-1.5s1.5.7 1.5 1.5v9c0 .8-.6 1.5-1.5 1.5zm0 7c-.8 0-1.5-.7-1.5-1.5v-1.4c0-.8.7-1.5 1.5-1.5s1.5.7 1.5 1.5v1.4c0 .9-.6 1.5-1.5 1.5z"/></symbol><symbol viewBox="0 0 64 64" id="check"><path fill="#010202" d="M21.1 54.7c-.6 0-1.4-.2-1.8-.6L.7 35.5c-1-1-1-2.6 0-3.6s2.6-1 3.6 0l16.8 16.8 38.6-38.6c1-1 2.6-1 3.6 0s1 2.6 0 3.6L22.7 53.9c-.4.6-1 .8-1.6.8z"/></symbol><symbol viewBox="0 0 32 32" id="chevron-left"><path d="M7.172 16.03q0 .282.203.485L22.703 31.86q.22.17.484.17t.484-.17l.956-.97q.203-.203.203-.484t-.204-.484L11.08 16.032 24.623 2.14q.203-.203.203-.484 0-.266-.203-.47L23.67.22q-.202-.203-.483-.203t-.484.203L7.375 15.562q-.203.203-.203.47z"/></symbol><symbol viewBox="0 0 32 32" id="chevron-right"><path d="M7.172 30.328q0 .28.203.484l.953.97q.203.202.484.202t.484-.203l15.328-15.34q.203-.202.203-.483 0-.266-.203-.47L9.296.14q-.22-.172-.484-.172T8.328.14l-.953.97q-.203.202-.203.483t.203.484l13.89 13.89L7.375 29.86q-.202.202-.202.468z"/></symbol><symbol viewBox="0 0 64 64" id="plus"><path fill="#010202" d="M29.6 2.3v24.9H4.8c-1.2 0-2.3.9-2.3 2.3 0 1.2.9 2.3 2.3 2.3h24.9v24.9c0 1.2.9 2.3 2.3 2.3 1.2 0 2.3-.9 2.3-2.3V31.6h24.9c1.2 0 2.3-.9 2.3-2.3s-.9-2.3-2.3-2.3H34.1V2.3c0-1.2-.9-2.3-2.3-2.3-1.2 0-2.2 1.1-2.2 2.3z"/></symbol><symbol viewBox="0 0 32 32" id="spinner"><path d="M0 16q0-1.11.78-1.89t1.892-.782 1.883.78T5.328 16t-.773 1.89-1.883.782-1.89-.78T0 16zm3.86 9.406q0-1.094.772-1.883t1.883-.79q1.078 0 1.875.798t.797 1.878q0 1.11-.79 1.89t-1.882.782q-1.11 0-1.883-.78t-.773-1.893zm.03-18.843q0-1.125.798-1.89.78-.782 1.875-.782 1.11 0 1.906.784t.794 1.89-.79 1.884-1.913.773q-1.093 0-1.882-.773t-.79-1.883zm9.376 22.765q0-1.11.78-1.89.767-.767 1.876-.767t1.89.776.782 1.883-.78 1.89-1.894.78-1.883-.782-.774-1.89zm.062-26.656q0-1.11.78-1.89T16 0t1.89.78.782 1.892-.78 1.883T16 5.328t-1.89-.773-.782-1.883zm9.406 22.734q0-1.078.797-1.875t1.91-.794q1.077 0 1.874.797t.797 1.876q0 1.11-.79 1.89t-1.882.78q-1.11 0-1.906-.78t-.795-1.89zm0-18.843q0-1.125.797-1.89.816-.782 1.91-.782t1.882.784.79 1.89-.79 1.884-1.882.773q-1.125 0-1.914-.773t-.79-1.883zM26.672 16q0-1.11.78-1.89t1.876-.782q1.11 0 1.89.78T32 16t-.78 1.89-1.892.782-1.883-.78T26.672 16z"/></symbol></svg>